<svg width="195" height="200" viewBox="0 0 195 200" fill="none" xmlns="http://www.w3.org/2000/svg">
<path d="M170.502 164.639C87.9534 203.925 36.7229 171.056 3.92857 151.091C1.89927 149.833 -1.54983 151.385 1.44274 154.823C12.3682 168.07 48.1731 200 94.9089 200C141.677 200 169.5 174.481 172.98 170.03C176.437 165.616 173.995 163.181 170.501 164.639H170.502ZM193.686 151.836C191.469 148.949 180.206 148.411 173.118 149.282C166.019 150.127 155.363 154.466 156.29 157.071C156.765 158.047 157.736 157.609 162.612 157.171C167.502 156.683 181.202 154.954 184.056 158.685C186.924 162.443 179.687 180.342 178.365 183.228C177.088 186.115 178.853 186.859 181.252 184.937C183.618 183.015 187.9 178.038 190.775 170.994C193.629 163.913 195.371 154.034 193.686 151.836Z" fill="#FF9900"/>
<path fill-rule="evenodd" clip-rule="evenodd" d="M114.997 84.4759C114.997 94.784 115.257 103.38 110.047 112.535C105.842 119.978 99.1806 124.555 91.738 124.555C81.5781 124.555 75.6612 116.814 75.6612 105.39C75.6612 82.838 95.8679 78.7449 114.997 78.7449V84.4759ZM141.679 148.968C139.93 150.53 137.399 150.643 135.427 149.6C126.645 142.307 125.081 138.92 120.244 131.961C105.73 146.772 95.4593 151.2 76.6292 151.2C54.3752 151.2 37.0332 137.468 37.0332 109.967C37.0332 88.4953 48.6819 73.8697 65.241 66.7252C79.6061 60.3981 99.6645 59.2818 114.997 57.5334V54.1094C114.997 47.8199 115.48 40.3773 111.796 34.9444C108.558 30.0692 102.381 28.0595 96.9473 28.0595C86.8628 28.0595 77.8568 33.232 75.6612 43.9495C75.2141 46.3318 73.4657 48.6765 71.0842 48.7879L45.4061 46.0345C43.2482 45.5498 40.8667 43.8013 41.462 40.4887C47.3789 9.37853 75.4745 -1.52588e-05 100.631 -1.52588e-05C113.507 -1.52588e-05 130.328 3.42398 140.487 13.1743C153.364 25.194 152.135 41.2331 152.135 58.6865V99.9196C152.135 112.312 157.271 117.745 162.108 124.444C163.82 126.825 164.193 129.692 162.034 131.477C156.638 135.979 147.037 144.353 141.753 149.042L141.678 148.968" fill="black"/>
<path d="M170.502 164.639C87.9534 203.925 36.7229 171.056 3.92857 151.091C1.89927 149.833 -1.54983 151.385 1.44274 154.823C12.3682 168.07 48.1731 200 94.9089 200C141.677 200 169.5 174.481 172.98 170.03C176.437 165.616 173.995 163.181 170.501 164.639H170.502ZM193.686 151.836C191.469 148.949 180.206 148.411 173.118 149.282C166.019 150.127 155.363 154.466 156.29 157.071C156.765 158.047 157.736 157.609 162.612 157.171C167.502 156.683 181.202 154.954 184.056 158.685C186.924 162.443 179.687 180.342 178.365 183.228C177.088 186.115 178.853 186.859 181.252 184.937C183.618 183.015 187.9 178.038 190.775 170.994C193.629 163.913 195.371 154.034 193.686 151.836Z" fill="#FF9900"/>
<path fill-rule="evenodd" clip-rule="evenodd" d="M114.997 84.4759C114.997 94.784 115.257 103.38 110.047 112.535C105.842 119.978 99.1806 124.555 91.738 124.555C81.5781 124.555 75.6612 116.814 75.6612 105.39C75.6612 82.838 95.8679 78.7449 114.997 78.7449V84.4759ZM141.679 148.968C139.93 150.53 137.399 150.643 135.427 149.6C126.645 142.307 125.081 138.92 120.244 131.961C105.73 146.772 95.4593 151.2 76.6292 151.2C54.3752 151.2 37.0332 137.468 37.0332 109.967C37.0332 88.4953 48.6819 73.8697 65.241 66.7252C79.6061 60.3981 99.6645 59.2818 114.997 57.5334V54.1094C114.997 47.8199 115.48 40.3773 111.796 34.9444C108.558 30.0692 102.381 28.0595 96.9473 28.0595C86.8628 28.0595 77.8568 33.232 75.6612 43.9495C75.2141 46.3318 73.4657 48.6765 71.0842 48.7879L45.4061 46.0345C43.2482 45.5498 40.8667 43.8013 41.462 40.4887C47.3789 9.37853 75.4745 -1.52588e-05 100.631 -1.52588e-05C113.507 -1.52588e-05 130.328 3.42398 140.487 13.1743C153.364 25.194 152.135 41.2331 152.135 58.6865V99.9196C152.135 112.312 157.271 117.745 162.108 124.444C163.82 126.825 164.193 129.692 162.034 131.477C156.638 135.979 147.037 144.353 141.753 149.042L141.678 148.968" fill="black"/>
</svg>
