<?xml version="1.0" encoding="utf-8"?>
<!-- Uploaded to: SVG Repo, www.svgrepo.com, Generator: SVG Repo Mixer Tools -->
<svg fill="#000000" width="800px" height="800px" viewBox="0 0 32 32" version="1.1" xmlns="http://www.w3.org/2000/svg">
<title>amazon</title>
<path d="M24.779 23.456c0.043-0.076 0.094-0.141 0.154-0.198l0-0c0.351-0.247 0.758-0.447 1.196-0.576l0.029-0.007c0.553-0.147 1.197-0.247 1.859-0.279l0.022-0.001c0.038-0.003 0.082-0.005 0.127-0.005 0.125 0 0.246 0.015 0.362 0.042l-0.011-0.002c0.758 0.070 1.225 0.196 1.367 0.385 0.073 0.119 0.116 0.263 0.116 0.418 0 0.013-0 0.026-0.001 0.039l0-0.002v0.175c-0.037 0.767-0.215 1.484-0.51 2.137l0.015-0.037c-0.303 0.776-0.762 1.432-1.344 1.956l-0.005 0.004c-0.060 0.058-0.14 0.096-0.228 0.105l-0.002 0c-0.005 0-0.011 0.001-0.017 0.001-0.031 0-0.062-0.005-0.090-0.015l0.002 0.001c-0.105-0.051-0.125-0.14-0.075-0.28 0.459-0.894 0.79-1.933 0.935-3.031l0.005-0.049c0.001-0.013 0.002-0.029 0.002-0.045 0-0.132-0.038-0.256-0.105-0.359l0.002 0.003c-0.169-0.194-0.642-0.3-1.428-0.3-0.284 0-0.622 0.019-1.015 0.054-0.424 0.052-0.817 0.105-1.167 0.157-0.011 0.001-0.023 0.002-0.036 0.002-0.065 0-0.125-0.020-0.175-0.054l0.001 0.001c-0.035-0.035-0.042-0.055-0.023-0.090 0.003-0.027 0.011-0.052 0.024-0.074l-0 0.001v-0.070zM14.090 15.258c-0.002 0.037-0.003 0.079-0.003 0.122 0 0.555 0.188 1.067 0.503 1.474l-0.004-0.006c0.31 0.367 0.77 0.599 1.284 0.599 0.022 0 0.045-0 0.067-0.001l-0.003 0c0.083-0.003 0.161-0.011 0.238-0.025l-0.010 0.002c0.056-0.013 0.122-0.022 0.19-0.027l0.004-0c0.736-0.205 1.328-0.704 1.654-1.359l0.007-0.015c0.184-0.306 0.328-0.66 0.415-1.037l0.005-0.025c0.079-0.273 0.135-0.592 0.157-0.92l0.001-0.014c0.017-0.227 0.017-0.63 0.017-1.172v-0.63c-0.085-0.003-0.184-0.004-0.284-0.004-0.693 0-1.368 0.078-2.016 0.226l0.061-0.012c-1.285 0.24-2.244 1.353-2.244 2.689 0 0.051 0.001 0.102 0.004 0.153l-0-0.007-0.041-0.023zM9.712 15.769c-0.001-0.044-0.002-0.096-0.002-0.148 0-1.066 0.325-2.056 0.881-2.876l-0.012 0.018c0.593-0.836 1.401-1.485 2.344-1.871l0.036-0.013c0.991-0.407 2.14-0.703 3.339-0.835l0.058-0.005c0.455-0.054 1.205-0.12 2.24-0.203v-0.432c0.010-0.113 0.015-0.245 0.015-0.378 0-0.653-0.134-1.276-0.377-1.84l0.012 0.030c-0.352-0.466-0.905-0.764-1.528-0.764-0.053 0-0.106 0.002-0.158 0.006l0.007-0h-0.212c-0.551 0.042-1.049 0.237-1.461 0.542l0.008-0.005c-0.401 0.31-0.685 0.755-0.785 1.265l-0.002 0.013c-0.020 0.292-0.228 0.53-0.503 0.594l-0.004 0.001-2.94-0.367c-0.289-0.070-0.434-0.21-0.434-0.455 0.001-0.063 0.010-0.123 0.027-0.18l-0.001 0.005c0.213-1.407 0.998-2.599 2.106-3.349l0.017-0.011c1.126-0.711 2.482-1.158 3.937-1.224l0.018-0.001h0.63c0.111-0.007 0.242-0.011 0.373-0.011 1.59 0 3.046 0.573 4.173 1.524l-0.010-0.008c0.157 0.175 0.315 0.35 0.473 0.56 0.121 0.153 0.23 0.325 0.322 0.508l0.008 0.017c0.104 0.192 0.183 0.415 0.226 0.651l0.002 0.014c0.070 0.296 0.122 0.49 0.157 0.595 0.053 0.214 0.085 0.461 0.089 0.715l0 0.003c0.012 0.365 0.023 0.575 0.023 0.645v6.16c-0 0.004-0 0.009-0 0.014 0 0.427 0.070 0.838 0.2 1.222l-0.008-0.027c0.088 0.299 0.213 0.561 0.374 0.796l-0.006-0.010 0.595 0.786c0.089 0.116 0.146 0.26 0.159 0.417l0 0.003c-0.005 0.154-0.087 0.288-0.208 0.365l-0.002 0.001c-1.4 1.225-2.17 1.89-2.29 1.995-0.112 0.085-0.254 0.136-0.408 0.136-0.12 0-0.232-0.031-0.33-0.085l0.003 0.002c-0.222-0.186-0.422-0.375-0.61-0.575l-0.003-0.004-0.362-0.405q-0.192-0.24-0.37-0.49l-0.35-0.508c-0.726 0.878-1.673 1.549-2.756 1.929l-0.044 0.013c-0.589 0.169-1.266 0.267-1.966 0.267-0.060 0-0.119-0.001-0.178-0.002l0.009 0c-0.048 0.002-0.104 0.003-0.16 0.003-1.185 0-2.262-0.46-3.063-1.211l0.002 0.002c-0.785-0.812-1.269-1.919-1.269-3.14 0-0.102 0.003-0.203 0.010-0.304l-0.001 0.014-0.058-0.089zM2.053 23.023c0.084-0.135 0.218-0.145 0.406-0.026 3.914 2.322 8.629 3.694 13.664 3.694 0.065 0 0.13-0 0.195-0.001l-0.010 0c3.548-0.010 6.934-0.692 10.040-1.926l-0.185 0.065 0.367-0.163c0.161-0.070 0.273-0.117 0.342-0.152 0.064-0.035 0.141-0.056 0.223-0.056 0.162 0 0.304 0.082 0.389 0.206l0.001 0.002c0.14 0.203 0.105 0.392-0.14 0.56-0.299 0.222-0.7 0.478-1.174 0.763-1.405 0.841-3.030 1.531-4.75 1.984l-0.132 0.030c-1.608 0.452-3.454 0.711-5.36 0.711-2.668 0-5.216-0.508-7.555-1.433l0.139 0.049c-2.443-0.971-4.542-2.292-6.354-3.925l0.019 0.017c-0.093-0.053-0.159-0.146-0.176-0.255l-0-0.002c0.003-0.058 0.025-0.111 0.060-0.152l-0 0z"></path>
</svg>