<svg width="104" height="80" viewBox="0 0 104 80" fill="none" xmlns="http://www.w3.org/2000/svg">
<g clip-path="url(#clip0_1041_168)">
<path fill-rule="evenodd" clip-rule="evenodd" d="M71.7582 38.2737C70.1519 38.2737 68.8466 39.5768 68.8466 41.1853V46.4316C68.8466 47.2038 69.1534 47.9443 69.6994 48.4904C70.2454 49.0364 70.986 49.3432 71.7582 49.3432C72.5304 49.3432 73.271 49.0364 73.817 48.4904C74.363 47.9443 74.6698 47.2038 74.6698 46.4316V41.1853C74.6698 39.5768 73.3666 38.2737 71.7582 38.2737ZM64.2719 38.2737C62.6635 38.2737 61.3603 39.5768 61.3603 41.1853V46.4316C61.3603 47.2038 61.6671 47.9443 62.2131 48.4904C62.7591 49.0364 63.4997 49.3432 64.2719 49.3432C65.0441 49.3432 65.7847 49.0364 66.3307 48.4904C66.8767 47.9443 67.1835 47.2038 67.1835 46.4316V41.1853C67.1835 39.5768 65.8803 38.2737 64.2719 38.2737ZM79.2445 38.2737C77.6382 38.2737 76.335 39.5768 76.335 41.1853V46.4316C76.335 47.2038 76.6418 47.9443 77.1878 48.4904C77.7339 49.0364 78.4744 49.3432 79.2466 49.3432C80.0188 49.3432 80.7594 49.0364 81.3054 48.4904C81.8514 47.9443 82.1582 47.2038 82.1582 46.4316V41.1853C82.1582 39.5768 80.8529 38.2737 79.2445 38.2737Z" fill="white"/>
<path d="M66.3244 4.21045H35.6023C30.5207 4.21045 25.6473 6.22909 22.0541 9.82228C18.4609 13.4155 16.4423 18.2889 16.4423 23.3704C16.4423 28.452 18.4609 33.3254 22.0541 36.9186C25.6473 40.5118 30.5207 42.5304 35.6023 42.5304H79.1686C80.8436 42.5304 82.4501 41.865 83.6345 40.6806C84.819 39.4962 85.4844 37.8897 85.4844 36.2147V23.3726C85.4847 20.8563 84.9893 18.3645 84.0265 16.0397C83.0638 13.7149 81.6525 11.6024 79.8733 9.82303C78.0941 8.04363 75.9818 6.63213 73.6571 5.66912C71.3323 4.70611 68.8407 4.21045 66.3244 4.21045V4.21045Z" fill="#FFC100"/>
<mask id="mask0_1041_168" style="mask-type:luminance" maskUnits="userSpaceOnUse" x="16" y="4" width="70" height="39">
<path d="M66.3244 4.21045H35.6023C30.5207 4.21045 25.6473 6.22909 22.0541 9.82228C18.4609 13.4155 16.4423 18.2889 16.4423 23.3704C16.4423 28.452 18.4609 33.3254 22.0541 36.9186C25.6473 40.5118 30.5207 42.5304 35.6023 42.5304H79.1686C80.8436 42.5304 82.4501 41.865 83.6345 40.6806C84.819 39.4962 85.4844 37.8897 85.4844 36.2147V23.3726C85.4847 20.8563 84.9893 18.3645 84.0265 16.0397C83.0638 13.7149 81.6525 11.6024 79.8733 9.82303C78.0941 8.04363 75.9818 6.63213 73.6571 5.66912C71.3323 4.70611 68.8407 4.21045 66.3244 4.21045V4.21045Z" fill="white"/>
</mask>
<g mask="url(#mask0_1041_168)">
<path fill-rule="evenodd" clip-rule="evenodd" d="M73.006 11.8739C75.566 9.21282 77.166 5.42756 77.166 1.22966C77.166 -2.96823 75.566 -6.75139 73.006 -9.41455V11.8739Z" fill="#B32457"/>
<path fill-rule="evenodd" clip-rule="evenodd" d="M73.0057 -9.41455C70.4457 -6.75139 68.8499 -2.96823 68.8499 1.22966C68.8499 5.42756 70.4499 9.21282 73.0078 11.8739L73.0057 -9.41455Z" fill="#ED3872"/>
<path fill-rule="evenodd" clip-rule="evenodd" d="M73.0077 2.50821C70.4477 5.16926 68.8477 8.95452 68.8477 13.1524C68.8477 17.3503 70.4477 21.1335 73.0077 23.7966V2.50821Z" fill="#B32457"/>
<path fill-rule="evenodd" clip-rule="evenodd" d="M73.008 23.7966C75.568 21.1335 77.1638 17.3503 77.1638 13.1524C77.1638 8.95452 75.5638 5.16926 73.0059 2.50821L73.008 23.7966Z" fill="#ED3872"/>
<path fill-rule="evenodd" clip-rule="evenodd" d="M77.683 7.18368C75.0219 4.62368 71.2366 3.02368 67.0387 3.02368C62.8408 3.02368 59.0577 4.62368 56.3945 7.18368L77.683 7.18368Z" fill="#B32457"/>
<path fill-rule="evenodd" clip-rule="evenodd" d="M56.3945 7.18375C59.0577 9.74375 62.8408 11.3395 67.0387 11.3395C71.2366 11.3395 75.0219 9.73954 77.683 7.18164L56.3945 7.18375Z" fill="#ED3872"/>
<path fill-rule="evenodd" clip-rule="evenodd" d="M68.317 7.18204C70.9781 9.74204 74.7634 11.342 78.9613 11.342C83.1592 11.342 86.9423 9.74204 89.6055 7.18204L68.317 7.18204Z" fill="#B32457"/>
<path fill-rule="evenodd" clip-rule="evenodd" d="M89.6055 7.18198C86.9423 4.62198 83.1592 3.02619 78.9613 3.02619C74.7634 3.02619 70.9781 4.62619 68.317 7.18408L89.6055 7.18198Z" fill="#ED3872"/>
<path fill-rule="evenodd" clip-rule="evenodd" d="M75.7114 9.89359C75.5775 6.86569 74.2347 3.71273 71.7412 1.21925C69.2477 -1.27423 66.0948 -2.61699 63.0669 -2.75097L75.7114 9.89359Z" fill="#B32457"/>
<path fill-rule="evenodd" clip-rule="evenodd" d="M63.0664 -2.75098C63.1989 0.278418 64.5417 3.43137 67.0351 5.92485C69.5286 8.41833 72.6816 9.76109 75.7095 9.89507L63.0664 -2.75098Z" fill="#ED3872"/>
<path fill-rule="evenodd" clip-rule="evenodd" d="M70.2915 4.47677C70.4255 7.50467 71.7682 10.6576 74.2617 13.1511C76.7552 15.6446 79.9081 16.9874 82.936 17.1213L70.2915 4.47677Z" fill="#B32457"/>
<path fill-rule="evenodd" clip-rule="evenodd" d="M82.9365 17.1213C82.804 14.0919 81.4613 10.939 78.9678 8.44551C76.4743 5.95203 73.3214 4.60927 70.2935 4.47529L82.9365 17.1213Z" fill="#ED3872"/>
<path fill-rule="evenodd" clip-rule="evenodd" d="M75.7105 4.47532C72.6826 4.6093 69.5296 5.95206 67.0361 8.44554C64.5427 10.939 63.1999 14.092 63.0659 17.1199L75.7105 4.47532Z" fill="#B32457"/>
<path fill-rule="evenodd" clip-rule="evenodd" d="M63.0664 17.1199C66.0958 16.9874 69.2488 15.6446 71.7422 13.1511C74.2357 10.6577 75.5785 7.50471 75.7125 4.4768L63.0664 17.1199Z" fill="#ED3872"/>
<path fill-rule="evenodd" clip-rule="evenodd" d="M70.2934 9.89504C73.3213 9.76106 76.4743 8.4183 78.9678 5.92482C81.4612 3.43134 82.804 0.278384 82.938 -2.74952L70.2934 9.89504Z" fill="#B32457"/>
<path fill-rule="evenodd" clip-rule="evenodd" d="M82.9375 -2.74951C79.9081 -2.61702 76.7552 -1.27426 74.2617 1.21922C71.7682 3.7127 70.4254 6.86565 70.2915 9.89356L82.9375 -2.74951Z" fill="#ED3872"/>
<path d="M73.006 11.8746C70.2495 11.8746 68.015 9.58701 68.015 6.76516C68.015 3.94332 70.2495 1.65576 73.006 1.65576C75.7625 1.65576 77.9971 3.94332 77.9971 6.76516C77.9971 9.58701 75.7625 11.8746 73.006 11.8746Z" fill="#FFA9C8"/>
<path d="M73.0064 9.31985C71.6282 9.31985 70.5109 8.17607 70.5109 6.76515C70.5109 5.35423 71.6282 4.21045 73.0064 4.21045C74.3847 4.21045 75.502 5.35423 75.502 6.76515C75.502 8.17607 74.3847 9.31985 73.0064 9.31985Z" fill="#ED3872"/>
<path d="M79.2453 22.0697C78.0826 22.0697 77.1401 21.1271 77.1401 19.9644C77.1401 18.8017 78.0826 17.8591 79.2453 17.8591C80.408 17.8591 81.3506 18.8017 81.3506 19.9644C81.3506 21.1271 80.408 22.0697 79.2453 22.0697Z" fill="#B32457"/>
<path d="M59.2815 15.2572C58.1188 15.2572 57.1762 14.3146 57.1762 13.1519C57.1762 11.9892 58.1188 11.0466 59.2815 11.0466C60.4442 11.0466 61.3867 11.9892 61.3867 13.1519C61.3867 14.3146 60.4442 15.2572 59.2815 15.2572Z" fill="#B32457"/>
<path d="M85.4836 14.8314C84.3209 14.8314 83.3783 13.8888 83.3783 12.7261C83.3783 11.5634 84.3209 10.6208 85.4836 10.6208C86.6463 10.6208 87.5889 11.5634 87.5889 12.7261C87.5889 13.8888 86.6463 14.8314 85.4836 14.8314Z" fill="#ED3872"/>
<path d="M66.3518 22.4957C65.1891 22.4957 64.2465 21.5531 64.2465 20.3904C64.2465 19.2277 65.1891 18.2852 66.3518 18.2852C67.5145 18.2852 68.457 19.2277 68.457 20.3904C68.457 21.5531 67.5145 22.4957 66.3518 22.4957Z" fill="#ED3872"/>
</g>
<path fill-rule="evenodd" clip-rule="evenodd" d="M71.7582 51.8989C70.1519 51.8989 68.8466 53.2021 68.8466 54.8105V57.5031C68.8466 58.2753 69.1534 59.0159 69.6994 59.5619C70.2454 60.108 70.986 60.4147 71.7582 60.4147C72.5304 60.4147 73.271 60.108 73.817 59.5619C74.363 59.0159 74.6698 58.2753 74.6698 57.5031V54.8084C74.6698 53.2021 73.3666 51.8989 71.7582 51.8989ZM64.2719 51.8989C62.6635 51.8989 61.3603 53.2021 61.3603 54.8105V57.5031C61.3603 58.2753 61.6671 59.0159 62.2131 59.5619C62.7591 60.108 63.4997 60.4147 64.2719 60.4147C65.0441 60.4147 65.7847 60.108 66.3307 59.5619C66.8767 59.0159 67.1835 58.2753 67.1835 57.5031V54.8084C67.1835 53.2021 65.8803 51.8989 64.2719 51.8989ZM79.2445 51.8989C77.6382 51.8989 76.335 53.2021 76.335 54.8105V57.5031C76.335 58.2753 76.6418 59.0159 77.1878 59.5619C77.7339 60.108 78.4744 60.4147 79.2466 60.4147C80.0188 60.4147 80.7594 60.108 81.3054 59.5619C81.8514 59.0159 82.1582 58.2753 82.1582 57.5031V54.8084C82.1582 53.2021 80.8529 51.8989 79.2445 51.8989Z" fill="white"/>
<path fill-rule="evenodd" clip-rule="evenodd" d="M58.8641 31.4609H34.742V54.3136C34.7839 57.485 36.0732 60.5124 38.3307 62.7403C40.5882 64.9682 43.6324 66.2174 46.8041 66.2174C49.9759 66.2174 53.02 64.9682 55.2775 62.7403C57.535 60.5124 58.8243 57.485 58.8662 54.3136V31.4609H58.8641Z" fill="#FFC100"/>
<path fill-rule="evenodd" clip-rule="evenodd" d="M79.6611 60.4146H47.219V63.7788C47.219 68.0809 48.928 72.2067 51.9701 75.2488C55.0121 78.2908 59.138 79.9998 63.4401 79.9998C67.7422 79.9998 71.8681 78.2908 74.9101 75.2488C77.9521 72.2067 79.6611 68.0809 79.6611 63.7788V60.4146Z" fill="#FFC100"/>
<path fill-rule="evenodd" clip-rule="evenodd" d="M82.0595 57.8589H51.4784C50.3492 57.8589 49.2662 58.3075 48.4677 59.106C47.6691 59.9045 47.2205 60.9875 47.2205 62.1168C47.2205 63.246 47.6691 64.3291 48.4677 65.1276C49.2662 65.9261 50.3492 66.3747 51.4784 66.3747H82.0595C83.1888 66.3747 84.2718 65.9261 85.0703 65.1276C85.8688 64.3291 86.3174 63.246 86.3174 62.1168C86.3174 60.9875 85.8688 59.9045 85.0703 59.106C84.2718 58.3075 83.1888 57.8589 82.0595 57.8589Z" fill="#FFC100"/>
<path d="M39.9688 22.9399C39.9688 24.3181 38.825 25.4354 37.4141 25.4354C36.0032 25.4354 34.8594 24.3181 34.8594 22.9399C34.8594 21.5616 36.0032 20.4443 37.4141 20.4443C38.825 20.4443 39.9688 21.5616 39.9688 22.9399Z" fill="#ED3872"/>
<path fill-rule="evenodd" clip-rule="evenodd" d="M39.9688 22.9391C39.9688 24.318 38.8257 25.4359 37.4131 25.4359C36.0025 25.4338 34.8594 24.318 34.8594 22.9391C36.9752 22.8275 36.0446 22.8633 39.9688 22.9391Z" fill="#B32457"/>
<path fill-rule="evenodd" clip-rule="evenodd" d="M31.3313 22.9391C30.5669 22.1466 29.65 21.517 28.6359 21.0882C27.6217 20.6595 26.5313 20.4405 25.4302 20.4444C23.1039 20.4444 21.007 21.4044 19.5312 22.9391L31.3313 22.9391Z" fill="#B32457"/>
<path fill-rule="evenodd" clip-rule="evenodd" d="M19.5312 22.939C20.2952 23.7316 21.2116 24.3615 22.2254 24.7906C23.2392 25.2197 24.3293 25.4392 25.4302 25.4358C26.5314 25.4395 27.622 25.2201 28.6361 24.791C29.6503 24.3619 30.5671 23.7319 31.3313 22.939L19.5312 22.939Z" fill="#ED3872"/>
<path fill-rule="evenodd" clip-rule="evenodd" d="M37.4144 18.7961C38.2069 18.0317 38.8365 17.1149 39.2653 16.1007C39.694 15.0866 39.913 13.9961 39.9091 12.895C39.9091 10.5687 38.9491 8.47188 37.4144 6.99609V18.7961Z" fill="#B32457"/>
<path fill-rule="evenodd" clip-rule="evenodd" d="M37.4141 6.99609C36.6214 7.76001 35.9915 8.67647 35.5624 9.69025C35.1333 10.704 34.9139 11.7942 34.9172 12.895C34.9136 13.9963 35.1329 15.0868 35.562 16.101C35.9911 17.1151 36.6211 18.0319 37.4141 18.7961V6.99609Z" fill="#ED3872"/>
<path fill-rule="evenodd" clip-rule="evenodd" d="M33.9392 19.6402C33.9591 18.5393 33.756 17.4458 33.342 16.4255C32.9281 15.4052 32.3119 14.4792 31.5305 13.7034C29.8856 12.0585 27.7241 11.2546 25.5953 11.2963L33.9392 19.6402Z" fill="#B32457"/>
<path fill-rule="evenodd" clip-rule="evenodd" d="M25.5957 11.2964C25.5754 12.3971 25.778 13.4905 26.1915 14.5107C26.6049 15.531 27.2206 16.4571 28.0014 17.2331C28.7774 18.0144 29.7037 18.6304 30.7242 19.0441C31.7448 19.4578 32.8385 19.6606 33.9396 19.6402L25.5957 11.2964Z" fill="#ED3872"/>
<path fill-rule="evenodd" clip-rule="evenodd" d="M33.939 26.3567C32.8381 26.3368 31.7446 26.5399 30.7243 26.9539C29.704 27.3678 28.7781 27.984 28.0023 28.7654C26.3573 30.4103 25.5535 32.5718 25.5951 34.7006L33.939 26.3567Z" fill="#B32457"/>
<path fill-rule="evenodd" clip-rule="evenodd" d="M25.5947 34.7007C26.6954 34.721 27.7888 34.5184 28.8091 34.1049C29.8294 33.6915 30.7554 33.0758 31.5314 32.295C32.3127 31.5189 32.9287 30.5927 33.3424 29.5722C33.7561 28.5516 33.9589 27.4579 33.9386 26.3568L25.5947 34.7007Z" fill="#ED3872"/>
<path fill-rule="evenodd" clip-rule="evenodd" d="M37.4137 27.0835C36.6212 27.8479 35.9916 28.7648 35.5628 29.7789C35.1341 30.7931 34.9151 31.8835 34.919 32.9846C34.919 35.3109 35.879 37.4078 37.4137 38.8835L37.4137 27.0835Z" fill="#B32457"/>
<path fill-rule="evenodd" clip-rule="evenodd" d="M37.4141 38.8835C38.2067 38.1196 38.8366 37.2032 39.2657 36.1894C39.6948 35.1756 39.9143 34.0855 39.9109 32.9846C39.9146 31.8834 39.6952 30.7928 39.2661 29.7787C38.837 28.7645 38.207 27.8477 37.4141 27.0835L37.4141 38.8835Z" fill="#ED3872"/>
<path d="M63.8566 34.8668C61.1001 34.8668 58.8656 32.5792 58.8656 29.7574C58.8656 26.9355 61.1001 24.6479 63.8566 24.6479C66.6131 24.6479 68.8477 26.9355 68.8477 29.7574C68.8477 32.5792 66.6131 34.8668 63.8566 34.8668Z" fill="#0F0825"/>
<path d="M46.7785 30.8102C46.7785 30.2288 47.2498 29.7576 47.8312 29.7576C48.4125 29.7576 48.8838 30.2288 48.8838 30.8102V37.2206C48.8838 37.802 48.4125 38.2732 47.8312 38.2732C47.2498 38.2732 46.7785 37.802 46.7785 37.2206V30.8102Z" fill="#ED3872"/>
<path d="M44.8466 35.2891C44.2652 35.2891 43.7939 34.8178 43.7939 34.2365C43.7939 33.6551 44.2652 33.1838 44.8466 33.1838H51.257C51.8383 33.1838 52.3096 33.6551 52.3096 34.2365C52.3096 34.8178 51.8383 35.2891 51.257 35.2891H44.8466Z" fill="#ED3872"/>
<path d="M47.2877 36.5803C46.8766 36.9913 46.2101 36.9913 45.799 36.5803C45.3879 36.1692 45.3879 35.5027 45.799 35.0916L49.1276 31.7631C49.5386 31.352 50.2051 31.352 50.6162 31.7631C51.0273 32.1741 51.0273 32.8406 50.6162 33.2517L47.2877 36.5803Z" fill="#B32457"/>
<path d="M50.6164 34.779C51.0275 35.1901 51.0275 35.8566 50.6164 36.2676C50.2053 36.6787 49.5388 36.6787 49.1277 36.2676L45.7992 32.9391C45.3881 32.528 45.3881 31.8615 45.7992 31.4504C46.2103 31.0394 46.8768 31.0394 47.2878 31.4504L50.6164 34.779Z" fill="#B32457"/>
<path d="M48.052 36.1207C46.8893 36.1207 45.9467 35.1781 45.9467 34.0154C45.9467 32.8527 46.8893 31.9102 48.052 31.9102C49.2147 31.9102 50.1572 32.8527 50.1572 34.0154C50.1572 35.1781 49.2147 36.1207 48.052 36.1207Z" fill="#FFA9C8"/>
<path d="M48.052 36.1207C46.8893 36.1207 45.9467 35.1781 45.9467 34.0154C45.9467 32.8527 46.8893 31.9102 48.052 31.9102C49.2147 31.9102 50.1572 32.8527 50.1572 34.0154C50.1572 35.1781 49.2147 36.1207 48.052 36.1207Z" fill="#B32457"/>
<path fill-rule="evenodd" clip-rule="evenodd" d="M50.9645 12.7261C50.7987 12.728 50.6348 12.7626 50.4823 12.8278C50.3297 12.8931 50.1916 12.9878 50.0756 13.1064C49.9597 13.2251 49.8683 13.3654 49.8066 13.5194C49.7449 13.6734 49.7142 13.8381 49.7161 14.004V24.2208C49.7127 24.5555 49.8423 24.8778 50.0764 25.117C50.3105 25.3562 50.6299 25.4927 50.9645 25.4966C51.2988 25.4922 51.6177 25.3554 51.8513 25.1162C52.0849 24.8771 52.2142 24.5551 52.2109 24.2208V14.004C52.2148 13.6693 52.0857 13.3468 51.8521 13.1072C51.6184 12.8676 51.2992 12.7305 50.9645 12.7261Z" fill="#ED3872"/>
<path fill-rule="evenodd" clip-rule="evenodd" d="M44.7242 19.1133C44.7208 19.448 44.8504 19.7703 45.0844 20.0095C45.3185 20.2487 45.6379 20.3852 45.9726 20.3891H55.9536C56.2883 20.3852 56.6077 20.2487 56.8418 20.0095C57.0759 19.7703 57.2054 19.448 57.2021 19.1133C57.204 18.9475 57.1733 18.7828 57.1116 18.6288C57.0499 18.4748 56.9585 18.3345 56.8425 18.2158C56.7266 18.0971 56.5884 18.0025 56.4359 17.9372C56.2834 17.872 56.1195 17.8374 55.9536 17.8354H45.9726C45.8067 17.8374 45.6428 17.872 45.4903 17.9372C45.3378 18.0025 45.1996 18.0971 45.0837 18.2158C44.9678 18.3345 44.8763 18.4748 44.8147 18.6288C44.753 18.7828 44.7222 18.9475 44.7242 19.1133Z" fill="#ED3872"/>
<path fill-rule="evenodd" clip-rule="evenodd" d="M47.5702 22.585C47.6802 22.699 47.812 22.7896 47.9578 22.8515C48.1035 22.9134 48.2603 22.9454 48.4187 22.9454C48.577 22.9454 48.7338 22.9134 48.8795 22.8515C49.0253 22.7896 49.1571 22.699 49.2671 22.585L54.3555 17.3787C54.581 17.1458 54.707 16.8344 54.707 16.5103C54.707 16.1861 54.581 15.8747 54.3555 15.6418C54.2455 15.5279 54.1137 15.4372 53.968 15.3753C53.8222 15.3134 53.6654 15.2815 53.5071 15.2815C53.3487 15.2815 53.192 15.3134 53.0462 15.3753C52.9004 15.4372 52.7686 15.5279 52.6587 15.6418L47.5702 20.8503C47.3448 21.0831 47.2187 21.3946 47.2187 21.7187C47.2187 22.0428 47.3448 22.3521 47.5702 22.585Z" fill="#B32457"/>
<path fill-rule="evenodd" clip-rule="evenodd" d="M54.3555 22.5849C54.581 22.3521 54.707 22.0406 54.707 21.7165C54.707 21.3924 54.581 21.0809 54.3555 20.8481L49.265 15.6396C49.155 15.5257 49.0232 15.435 48.8774 15.3731C48.7317 15.3112 48.5749 15.2793 48.4165 15.2793C48.2582 15.2793 48.1014 15.3112 47.9557 15.3731C47.8099 15.435 47.6781 15.5257 47.5681 15.6396C47.3427 15.8725 47.2166 16.1839 47.2166 16.5081C47.2166 16.8322 47.3427 17.1436 47.5681 17.3765L52.6587 22.5849C52.7686 22.6989 52.9004 22.7895 53.0462 22.8514C53.192 22.9134 53.3487 22.9453 53.5071 22.9453C53.6654 22.9453 53.8222 22.9134 53.968 22.8514C54.1137 22.7895 54.2455 22.6989 54.3555 22.5849Z" fill="#B32457"/>
<path d="M50.9631 21.2417C49.8004 21.2417 48.8578 20.2886 48.8578 19.1128C48.8578 17.937 49.8004 16.9839 50.9631 16.9839C52.1258 16.9839 53.0684 17.937 53.0684 19.1128C53.0684 20.2886 52.1258 21.2417 50.9631 21.2417Z" fill="#FFFBFC"/>
<path d="M50.9631 21.2181C49.8004 21.2181 48.8578 20.2755 48.8578 19.1128C48.8578 17.9501 49.8004 17.0076 50.9631 17.0076C52.1258 17.0076 53.0684 17.9501 53.0684 19.1128C53.0684 20.2755 52.1258 21.2181 50.9631 21.2181Z" fill="#B32457"/>
<path d="M76.3341 34.8668C73.5777 34.8668 71.3431 32.5792 71.3431 29.7574C71.3431 26.9355 73.5777 24.6479 76.3341 24.6479C79.0906 24.6479 81.3252 26.9355 81.3252 29.7574C81.3252 32.5792 79.0906 34.8668 76.3341 34.8668Z" fill="#0F0825"/>
<path d="M46.8043 58.7108C42.8993 58.7108 39.7337 55.4701 39.7337 51.4725C39.7337 47.4748 42.8993 44.2341 46.8043 44.2341C50.7094 44.2341 53.875 47.4748 53.875 51.4725C53.875 55.4701 50.7094 58.7108 46.8043 58.7108Z" fill="url(#paint0_linear_1041_168)"/>
<path d="M20.0002 55.7894C18.8375 55.7894 17.8949 54.8468 17.8949 53.6841C17.8949 52.5214 18.8375 51.5789 20.0002 51.5789C21.1629 51.5789 22.1055 52.5214 22.1055 53.6841C22.1055 54.8468 21.1629 55.7894 20.0002 55.7894Z" fill="#EC7802"/>
<path d="M93.6848 30.5262C92.5221 30.5262 91.5795 29.5836 91.5795 28.4209C91.5795 27.2582 92.5221 26.3157 93.6848 26.3157C94.8475 26.3157 95.79 27.2582 95.79 28.4209C95.79 29.5836 94.8475 30.5262 93.6848 30.5262Z" fill="#EC7802"/>
<path d="M17.8947 41.0526C16.732 41.0526 15.7895 40.11 15.7895 38.9473C15.7895 37.7846 16.732 36.842 17.8947 36.842C19.0574 36.842 20 37.7846 20 38.9473C20 40.11 19.0574 41.0526 17.8947 41.0526Z" fill="#FFC100"/>
<path d="M89.4738 11.5789C88.3111 11.5789 87.3686 10.6364 87.3686 9.47367C87.3686 8.31097 88.3111 7.36841 89.4738 7.36841C90.6365 7.36841 91.5791 8.31097 91.5791 9.47367C91.5791 10.6364 90.6365 11.5789 89.4738 11.5789Z" fill="#FFC100"/>
<path d="M1.05294 26.3158C-0.109765 26.3158 -1.05232 25.3732 -1.05232 24.2105C-1.05232 23.0478 -0.109765 22.1052 1.05294 22.1052C2.21564 22.1052 3.1582 23.0478 3.1582 24.2105C3.1582 25.3732 2.21564 26.3158 1.05294 26.3158Z" fill="#EC7802"/>
<path d="M27.6692 48.421C26.5064 48.421 25.5639 47.4784 25.5639 46.3157C25.5639 45.153 26.5064 44.2104 27.6692 44.2104C28.8319 44.2104 29.7744 45.153 29.7744 46.3157C29.7744 47.4784 28.8319 48.421 27.6692 48.421Z" fill="#ED3872"/>
<path fill-rule="evenodd" clip-rule="evenodd" d="M27.6188 48.421C26.6209 48.421 25.8125 47.4778 25.8125 46.3157C25.8125 45.1536 26.6209 44.2104 27.6209 44.2104C27.7009 45.9536 27.6735 45.1873 27.6188 48.421Z" fill="#B32457"/>
<path d="M97.1428 18.9473C95.9801 18.9473 95.0375 18.0048 95.0375 16.8421C95.0375 15.6794 95.9801 14.7368 97.1428 14.7368C98.3055 14.7368 99.248 15.6794 99.248 16.8421C99.248 18.0048 98.3055 18.9473 97.1428 18.9473Z" fill="#ED3872"/>
<path fill-rule="evenodd" clip-rule="evenodd" d="M97.0924 18.9473C96.0945 18.9473 95.2861 18.0042 95.2861 16.8421C95.2861 15.68 96.0945 14.7368 97.0945 14.7368C97.1745 16.48 97.1472 15.7137 97.0924 18.9473Z" fill="#B32457"/>
<path d="M44.5119 75.7894C43.3492 75.7894 42.4067 74.8468 42.4067 73.6841C42.4067 72.5214 43.3492 71.5789 44.5119 71.5789C45.6746 71.5789 46.6172 72.5214 46.6172 73.6841C46.6172 74.8468 45.6746 75.7894 44.5119 75.7894Z" fill="#ED3872"/>
<path fill-rule="evenodd" clip-rule="evenodd" d="M44.4616 75.7894C43.4637 75.7894 42.6553 74.8462 42.6553 73.6841C42.6553 72.522 43.4637 71.5789 44.4637 71.5789C44.5437 73.322 44.5163 72.5557 44.4616 75.7894Z" fill="#B32457"/>
<path d="M64.2112 67.3685C62.4672 67.3685 61.0534 65.9547 61.0534 64.2106C61.0534 62.4666 62.4672 61.0527 64.2112 61.0527C65.9553 61.0527 67.3691 62.4666 67.3691 64.2106C67.3691 65.9547 65.9553 67.3685 64.2112 67.3685Z" fill="#ED3872"/>
<path fill-rule="evenodd" clip-rule="evenodd" d="M64.1251 67.3685C62.4282 67.3685 61.0535 65.9538 61.0535 64.2106C61.0535 62.4675 62.4282 61.0527 64.1251 61.0527C64.2619 63.6696 64.2177 62.518 64.1251 67.3685Z" fill="#B32457"/>
<path d="M10.8274 18.9473C9.66465 18.9473 8.72209 18.0048 8.72209 16.8421C8.72209 15.6794 9.66465 14.7368 10.8274 14.7368C11.9901 14.7368 12.9326 15.6794 12.9326 16.8421C12.9326 18.0048 11.9901 18.9473 10.8274 18.9473Z" fill="#ED3872"/>
<path fill-rule="evenodd" clip-rule="evenodd" d="M10.777 18.9473C9.77912 18.9473 8.97069 18.0042 8.97069 16.8421C8.97069 15.68 9.77912 14.7368 10.7791 14.7368C10.8591 16.48 10.8317 15.7137 10.777 18.9473Z" fill="#B32457"/>
<path d="M10.8274 35.7894C9.66465 35.7894 8.72209 34.8468 8.72209 33.6841C8.72209 32.5214 9.66465 31.5789 10.8274 31.5789C11.9901 31.5789 12.9326 32.5214 12.9326 33.6841C12.9326 34.8468 11.9901 35.7894 10.8274 35.7894Z" fill="#EC7802"/>
<path fill-rule="evenodd" clip-rule="evenodd" d="M10.777 35.7894C9.77912 35.7894 8.97069 34.8462 8.97069 33.6841C8.97069 32.522 9.77912 31.5789 10.7791 31.5789C10.8591 33.322 10.8317 32.5557 10.777 35.7894Z" fill="#FFC100"/>
<path d="M101.354 37.8949C100.191 37.8949 99.2485 36.9523 99.2485 35.7896C99.2485 34.6269 100.191 33.6843 101.354 33.6843C102.516 33.6843 103.459 34.6269 103.459 35.7896C103.459 36.9523 102.516 37.8949 101.354 37.8949Z" fill="#EC7802"/>
<path fill-rule="evenodd" clip-rule="evenodd" d="M101.303 37.8949C100.305 37.8949 99.4971 36.9517 99.4971 35.7896C99.4971 34.6275 100.305 33.6843 101.305 33.6843C101.385 35.4275 101.358 34.6612 101.303 37.8949Z" fill="#FFC100"/>
<path d="M27.6692 65.2633C26.5064 65.2633 25.5639 64.3207 25.5639 63.158C25.5639 61.9953 26.5064 61.0527 27.6692 61.0527C28.8319 61.0527 29.7744 61.9953 29.7744 63.158C29.7744 64.3207 28.8319 65.2633 27.6692 65.2633Z" fill="#EC7802"/>
<path fill-rule="evenodd" clip-rule="evenodd" d="M27.6188 65.2633C26.6209 65.2633 25.8125 64.3201 25.8125 63.158C25.8125 61.9959 26.6209 61.0527 27.6209 61.0527C27.7009 62.7959 27.6735 62.0296 27.6188 65.2633Z" fill="#FFC100"/>
<path d="M84.5119 4.21053C83.3492 4.21053 82.4067 3.26797 82.4067 2.10526C82.4067 0.942558 83.3492 0 84.5119 0C85.6746 0 86.6172 0.942558 86.6172 2.10526C86.6172 3.26797 85.6746 4.21053 84.5119 4.21053Z" fill="#EC7802"/>
<path fill-rule="evenodd" clip-rule="evenodd" d="M84.4616 4.21053C83.4637 4.21053 82.6553 3.26737 82.6553 2.10526C82.6553 0.943158 83.4637 0 84.4637 0C84.5437 1.74316 84.5163 0.976842 84.4616 4.21053Z" fill="#FFC100"/>
<path fill-rule="evenodd" clip-rule="evenodd" d="M63.1584 75.7894C64.4342 75.3199 65.2637 74.5515 65.2637 73.6841C65.2637 72.8168 64.4342 72.0483 63.1584 71.5789V75.7894Z" fill="#F14F58"/>
<path fill-rule="evenodd" clip-rule="evenodd" d="M63.1582 75.7894V71.5789C61.8824 72.0483 61.0529 72.8168 61.0529 73.6841C61.0529 74.5515 61.8824 75.3199 63.1582 75.7894Z" fill="#FFE823"/>
<path d="M70.5266 68.421C69.3639 68.421 68.4213 67.4784 68.4213 66.3157C68.4213 65.153 69.3639 64.2104 70.5266 64.2104C71.6893 64.2104 72.6318 65.153 72.6318 66.3157C72.6318 67.4784 71.6893 68.421 70.5266 68.421Z" fill="#F14F58"/>
<path d="M57.8947 68.421C56.732 68.421 55.7895 67.4784 55.7895 66.3157C55.7895 65.153 56.732 64.2104 57.8947 64.2104C59.0574 64.2104 60 65.153 60 66.3157C60 67.4784 59.0574 68.421 57.8947 68.421Z" fill="#F14F58"/>
<path d="M68.4211 76.8421C67.2584 76.8421 66.3158 75.8996 66.3158 74.7369C66.3158 73.5742 67.2584 72.6316 68.4211 72.6316C69.5838 72.6316 70.5264 73.5742 70.5264 74.7369C70.5264 75.8996 69.5838 76.8421 68.4211 76.8421Z" fill="#F14F58"/>
<path d="M60.0002 76.8421C58.8375 76.8421 57.8949 75.8996 57.8949 74.7369C57.8949 73.5742 58.8375 72.6316 60.0002 72.6316C61.1629 72.6316 62.1055 73.5742 62.1055 74.7369C62.1055 75.8996 61.1629 76.8421 60.0002 76.8421Z" fill="#F14F58"/>
<path d="M64.2111 72.6317C63.0484 72.6317 62.1059 71.6891 62.1059 70.5264C62.1059 69.3637 63.0484 68.4211 64.2111 68.4211C65.3738 68.4211 66.3164 69.3637 66.3164 70.5264C66.3164 71.6891 65.3738 72.6317 64.2111 72.6317Z" fill="#F14F58"/>
<path fill-rule="evenodd" clip-rule="evenodd" d="M75.5262 62.0733C75.7341 60.7298 75.4642 59.6318 74.7056 59.2113C73.9469 58.7908 72.8727 59.1438 71.8436 60.032L75.5262 62.0733Z" fill="#F14F58"/>
<path fill-rule="evenodd" clip-rule="evenodd" d="M75.5264 62.0733L71.8438 60.032C71.6358 61.3754 71.9058 62.4734 72.6644 62.8939C73.423 63.3144 74.4972 62.9615 75.5264 62.0733Z" fill="#FFE823"/>
<path fill-rule="evenodd" clip-rule="evenodd" d="M50.9284 62.29C52.0581 63.0462 53.1674 63.2656 53.8691 62.7558C54.5708 62.2459 54.7049 61.1232 54.3348 59.8151L50.9284 62.29Z" fill="#F14F58"/>
<path fill-rule="evenodd" clip-rule="evenodd" d="M50.9286 62.2901L54.335 59.8152C53.2053 59.059 52.096 58.8396 51.3943 59.3494C50.6926 59.8593 50.5585 60.982 50.9286 62.2901Z" fill="#FFE823"/>
<path fill-rule="evenodd" clip-rule="evenodd" d="M74.2054 74.068C74.3298 73.3135 74.2726 72.5403 74.0386 71.8123C73.8046 71.0843 73.4004 70.4226 72.8597 69.8819C71.7179 68.7401 70.1489 68.2906 68.6707 68.5332L74.2054 74.068Z" fill="#F14F58"/>
<path fill-rule="evenodd" clip-rule="evenodd" d="M74.2057 74.068L68.6709 68.5332C68.4297 70.0099 68.8793 71.579 70.0196 72.7193C71.1599 73.8596 72.7289 74.3091 74.2072 74.0695L74.2057 74.068Z" fill="#FFE823"/>
<path fill-rule="evenodd" clip-rule="evenodd" d="M54.2271 72.5716C55.6369 72.6743 57.191 72.1027 58.3923 70.9014C59.5937 69.7 60.1653 68.1459 60.0611 66.7376L54.2271 72.5716Z" fill="#F14F58"/>
<path fill-rule="evenodd" clip-rule="evenodd" d="M54.2275 72.5716L60.0615 66.7375C58.6548 66.6348 57.1006 67.2065 55.8978 68.4093C54.6979 69.6091 54.1263 71.1633 54.2275 72.5716Z" fill="#FFE823"/>
<path fill-rule="evenodd" clip-rule="evenodd" d="M8.45699 50.9832C7.57068 51.501 6.99805 52.3263 6.99805 53.2568C6.99805 54.1874 7.57068 55.0126 8.45699 55.5305C9.34542 55.0126 9.91805 54.1874 9.91805 53.2568C9.91805 52.3263 9.34542 51.501 8.45699 50.9832Z" fill="url(#paint1_linear_1041_168)"/>
<path fill-rule="evenodd" clip-rule="evenodd" d="M8.45699 49.8506C9.34542 49.3327 9.91805 48.5074 9.91805 47.5769C9.91805 46.6464 9.34542 45.8211 8.45699 45.3032C7.57068 45.8211 6.99805 46.6464 6.99805 47.5769C6.99805 48.5074 7.57068 49.3327 8.45699 49.8506Z" fill="url(#paint2_linear_1041_168)"/>
<path fill-rule="evenodd" clip-rule="evenodd" d="M9.03613 50.459C9.55403 51.3453 10.3793 51.918 11.3098 51.918C12.2403 51.918 13.0656 51.3453 13.5835 50.459C13.0656 49.5706 12.2403 48.998 11.3098 48.998C10.3793 48.998 9.55403 49.5706 9.03613 50.459Z" fill="url(#paint3_linear_1041_168)"/>
<path fill-rule="evenodd" clip-rule="evenodd" d="M7.90381 50.459C7.38592 49.5706 6.56066 48.998 5.63013 48.998C4.6996 48.998 3.87434 49.5706 3.35645 50.459C3.87434 51.3453 4.6996 51.918 5.63013 51.918C6.56066 51.918 7.38592 51.3453 7.90381 50.459Z" fill="url(#paint4_linear_1041_168)"/>
<path fill-rule="evenodd" clip-rule="evenodd" d="M8.44039 50.4283C7.96605 50.5534 7.52742 50.7874 7.15937 51.1117C6.79132 51.436 6.50399 51.8416 6.32023 52.2965C6.13647 52.7513 6.06134 53.2427 6.10082 53.7317C6.1403 54.2206 6.29329 54.6936 6.54764 55.1131C7.02198 54.988 7.46061 54.7541 7.82867 54.4298C8.19672 54.1055 8.48405 53.6998 8.66781 53.2449C8.85157 52.7901 8.9267 52.2987 8.88722 51.8097C8.84774 51.3208 8.69474 50.8478 8.44039 50.4283Z" fill="url(#paint5_linear_1041_168)"/>
<path fill-rule="evenodd" clip-rule="evenodd" d="M8.44022 50.4282C8.91456 50.3032 9.35319 50.0692 9.72124 49.7449C10.0893 49.4206 10.3766 49.015 10.5604 48.5601C10.7441 48.1053 10.8193 47.6139 10.7798 47.1249C10.7403 46.636 10.5873 46.163 10.333 45.7435C9.85863 45.8686 9.42 46.1025 9.05195 46.4268C8.68389 46.7511 8.39657 47.1568 8.21281 47.6116C8.02904 48.0665 7.95392 48.5579 7.9934 49.0468C8.03287 49.5358 8.18587 50.0088 8.44022 50.4282Z" fill="url(#paint6_linear_1041_168)"/>
<path fill-rule="evenodd" clip-rule="evenodd" d="M8.44039 50.4283C8.18604 50.8478 8.03305 51.3208 7.99357 51.8097C7.95409 52.2987 8.02922 52.7901 8.21298 53.2449C8.39674 53.6998 8.68406 54.1055 9.05212 54.4298C9.42017 54.7541 9.8588 54.988 10.3331 55.1131C10.5875 54.6936 10.7405 54.2206 10.78 53.7317C10.8194 53.2427 10.7443 52.7513 10.5606 52.2965C10.3768 51.8416 10.0895 51.436 9.72141 51.1117C9.35336 50.7874 8.91473 50.5534 8.44039 50.4283Z" fill="url(#paint7_linear_1041_168)"/>
<path fill-rule="evenodd" clip-rule="evenodd" d="M8.44056 50.4283C8.69491 50.0088 8.84791 49.5358 8.88739 49.0468C8.92687 48.5579 8.85174 48.0665 8.66798 47.6116C8.48422 47.1568 8.19689 46.7511 7.82884 46.4268C7.46078 46.1025 7.02215 45.8686 6.54781 45.7435C6.29346 46.163 6.14047 46.636 6.10099 47.1249C6.06151 47.6139 6.13664 48.1053 6.3204 48.5601C6.50416 49.015 6.79149 49.4206 7.15954 49.7449C7.52759 50.0692 7.96622 50.3032 8.44056 50.4283Z" fill="url(#paint8_linear_1041_168)"/>
<path fill-rule="evenodd" clip-rule="evenodd" d="M8.4403 50.4281C8.54034 50.9083 8.75103 51.3586 9.05562 51.7431C9.36022 52.1276 9.75031 52.4358 10.1949 52.6431C10.6395 52.8504 11.1263 52.9512 11.6166 52.9373C12.107 52.9235 12.5873 52.7955 13.0195 52.5634C12.9195 52.0832 12.7088 51.6329 12.4042 51.2484C12.0996 50.8639 11.7095 50.5557 11.2649 50.3484C10.8204 50.1411 10.3335 50.0403 9.84319 50.0542C9.35284 50.068 8.87248 50.196 8.4403 50.4281Z" fill="url(#paint9_linear_1041_168)"/>
<path fill-rule="evenodd" clip-rule="evenodd" d="M8.44044 50.4282C8.34039 49.9479 8.1297 49.4977 7.82511 49.1131C7.52051 48.7286 7.13042 48.4204 6.68584 48.2131C6.24126 48.0058 5.75444 47.9051 5.26409 47.9189C4.77374 47.9327 4.29338 48.0608 3.8612 48.2928C3.96124 48.7731 4.17193 49.2233 4.47652 49.6079C4.78112 49.9924 5.17121 50.3005 5.61579 50.5079C6.06038 50.7152 6.54719 50.8159 7.03754 50.8021C7.52789 50.7882 8.00825 50.6602 8.44044 50.4282Z" fill="url(#paint10_linear_1041_168)"/>
<path fill-rule="evenodd" clip-rule="evenodd" d="M8.44085 50.4282C8.85579 50.6899 9.32605 50.8511 9.81424 50.8991C10.3024 50.9471 10.7951 50.8806 11.253 50.7048C11.711 50.529 12.1217 50.2488 12.4523 49.8864C12.783 49.5241 13.0246 49.0896 13.1579 48.6175C12.7429 48.3559 12.2727 48.1947 11.7845 48.1467C11.2963 48.0986 10.8036 48.1652 10.3457 48.341C9.88772 48.5168 9.47708 48.797 9.14641 49.1593C8.81574 49.5217 8.57415 49.9561 8.44085 50.4282Z" fill="url(#paint11_linear_1041_168)"/>
<path fill-rule="evenodd" clip-rule="evenodd" d="M8.44109 50.4283C8.02614 50.1667 7.55588 50.0054 7.06769 49.9574C6.5795 49.9094 6.08685 49.976 5.62888 50.1518C5.17092 50.3276 4.76028 50.6078 4.42961 50.9701C4.09894 51.3324 3.85735 51.7669 3.72405 52.239C4.139 52.5006 4.60926 52.6619 5.09745 52.7099C5.58563 52.7579 6.07829 52.6913 6.53625 52.5155C6.99422 52.3398 7.40485 52.0595 7.73553 51.6972C8.0662 51.3349 8.30779 50.9004 8.44109 50.4283Z" fill="url(#paint12_linear_1041_168)"/>
<path fill-rule="evenodd" clip-rule="evenodd" d="M8.5168 50.4187C8.07984 50.3553 7.63414 50.3949 7.21514 50.5341C6.79614 50.6733 6.4154 50.9083 6.1032 51.2205C5.791 51.5327 5.55595 51.9135 5.41674 52.3325C5.27754 52.7515 5.23802 53.1972 5.30132 53.6341C5.73828 53.6974 6.18398 53.6579 6.60298 53.5187C7.02198 53.3795 7.40272 53.1445 7.71492 52.8323C8.02712 52.5201 8.26217 52.1393 8.40138 51.7203C8.54058 51.3013 8.5801 50.8556 8.5168 50.4187Z" fill="url(#paint13_linear_1041_168)"/>
<path fill-rule="evenodd" clip-rule="evenodd" d="M8.4273 50.5079C8.86426 50.5712 9.30996 50.5317 9.72896 50.3925C10.148 50.2533 10.5287 50.0182 10.8409 49.706C11.1531 49.3938 11.3881 49.0131 11.5274 48.5941C11.6666 48.1751 11.7061 47.7294 11.6428 47.2924C11.2058 47.2291 10.7601 47.2686 10.3411 47.4079C9.92212 47.5471 9.54138 47.7821 9.22918 48.0943C8.91698 48.4065 8.68193 48.7873 8.54272 49.2063C8.40351 49.6253 8.36399 50.071 8.4273 50.5079Z" fill="url(#paint14_linear_1041_168)"/>
<path fill-rule="evenodd" clip-rule="evenodd" d="M8.37715 50.368C8.31384 50.8049 8.35337 51.2506 8.49257 51.6696C8.63178 52.0886 8.86683 52.4694 9.17903 52.7816C9.49123 53.0938 9.87197 53.3288 10.291 53.468C10.71 53.6072 11.1557 53.6467 11.5926 53.5834C11.6559 53.1465 11.6164 52.7008 11.4772 52.2818C11.338 51.8628 11.1029 51.482 10.7907 51.1698C10.4785 50.8576 10.0978 50.6226 9.67881 50.4834C9.25981 50.3442 8.81411 50.3047 8.37715 50.368Z" fill="url(#paint15_linear_1041_168)"/>
<path fill-rule="evenodd" clip-rule="evenodd" d="M8.46665 50.4572C8.52995 50.0203 8.49043 49.5746 8.35123 49.1556C8.21202 48.7366 7.97697 48.3558 7.66477 48.0436C7.35257 47.7314 6.97183 47.4964 6.55283 47.3572C6.13383 47.218 5.68813 47.1784 5.25117 47.2417C5.18787 47.6787 5.22739 48.1244 5.36659 48.5434C5.5058 48.9624 5.74085 49.3431 6.05305 49.6553C6.36525 49.9675 6.74599 50.2026 7.16499 50.3418C7.58399 50.481 8.02969 50.5205 8.46665 50.4572Z" fill="url(#paint16_linear_1041_168)"/>
<path fill-rule="evenodd" clip-rule="evenodd" d="M8.42186 50.5264C8.7756 50.2622 9.06282 49.9191 9.26066 49.5243C9.45851 49.1296 9.56152 48.6942 9.56152 48.2527C9.56152 47.8112 9.45851 47.3757 9.26066 46.981C9.06282 46.5863 8.7756 46.2432 8.42186 45.979C8.06813 46.2432 7.78091 46.5863 7.58307 46.981C7.38523 47.3757 7.28221 47.8112 7.28221 48.2527C7.28221 48.6942 7.38523 49.1296 7.58307 49.5243C7.78091 49.9191 8.06813 50.2622 8.42186 50.5264Z" fill="url(#paint17_linear_1041_168)"/>
<path fill-rule="evenodd" clip-rule="evenodd" d="M8.42189 50.5266C8.06815 50.7908 7.78093 51.1339 7.58309 51.5286C7.38524 51.9233 7.28223 52.3588 7.28223 52.8003C7.28223 53.2418 7.38524 53.6772 7.58309 54.0719C7.78093 54.4667 8.06815 54.8098 8.42189 55.074C8.77562 54.8098 9.06284 54.4667 9.26068 54.0719C9.45852 53.6772 9.56154 53.2418 9.56154 52.8003C9.56154 52.3588 9.45852 51.9233 9.26068 51.5286C9.06284 51.1339 8.77562 50.7908 8.42189 50.5266Z" fill="url(#paint18_linear_1041_168)"/>
<path fill-rule="evenodd" clip-rule="evenodd" d="M8.52051 50.499C8.2563 50.1453 7.91319 49.8581 7.51848 49.6602C7.12377 49.4624 6.68834 49.3594 6.24682 49.3594C5.8053 49.3594 5.36988 49.4624 4.97516 49.6602C4.58045 49.8581 4.23735 50.1453 3.97314 50.499C4.23735 50.8528 4.58045 51.14 4.97516 51.3378C5.36988 51.5357 5.8053 51.6387 6.24682 51.6387C6.68834 51.6387 7.12377 51.5357 7.51848 51.3378C7.91319 51.14 8.2563 50.8528 8.52051 50.499Z" fill="url(#paint19_linear_1041_168)"/>
<path fill-rule="evenodd" clip-rule="evenodd" d="M8.39404 50.499C8.65825 50.8528 9.00135 51.14 9.39606 51.3378C9.79077 51.5357 10.2262 51.6387 10.6677 51.6387C11.1092 51.6387 11.5447 51.5357 11.9394 51.3378C12.3341 51.14 12.6772 50.8528 12.9414 50.499C12.6772 50.1453 12.3341 49.8581 11.9394 49.6602C11.5447 49.4624 11.1092 49.3594 10.6677 49.3594C10.2262 49.3594 9.79077 49.4624 9.39606 49.6602C9.00135 49.8581 8.65825 50.1453 8.39404 50.499Z" fill="url(#paint20_linear_1041_168)"/>
<path fill-rule="evenodd" clip-rule="evenodd" d="M29.5097 74.1411C28.6234 74.659 28.0508 75.4843 28.0508 76.4148C28.0508 77.3453 28.6234 78.1706 29.5097 78.6885C30.3981 78.1706 30.9708 77.3453 30.9708 76.4148C30.9708 75.4843 30.3981 74.659 29.5097 74.1411Z" fill="url(#paint21_linear_1041_168)"/>
<path fill-rule="evenodd" clip-rule="evenodd" d="M29.5097 73.0086C30.3981 72.4907 30.9708 71.6654 30.9708 70.7349C30.9708 69.8043 30.3981 68.9791 29.5097 68.4612C28.6234 68.9791 28.0508 69.8043 28.0508 70.7349C28.0508 71.6654 28.6234 72.4907 29.5097 73.0086Z" fill="url(#paint22_linear_1041_168)"/>
<path fill-rule="evenodd" clip-rule="evenodd" d="M30.0889 73.617C30.6068 74.5033 31.432 75.0759 32.3626 75.0759C33.2931 75.0759 34.1183 74.5033 34.6362 73.617C34.1183 72.7286 33.2931 72.1559 32.3626 72.1559C31.432 72.1559 30.6068 72.7286 30.0889 73.617Z" fill="url(#paint23_linear_1041_168)"/>
<path fill-rule="evenodd" clip-rule="evenodd" d="M28.9565 73.617C28.4387 72.7286 27.6134 72.1559 26.6829 72.1559C25.7523 72.1559 24.9271 72.7286 24.4092 73.617C24.9271 74.5033 25.7523 75.0759 26.6829 75.0759C27.6134 75.0759 28.4387 74.5033 28.9565 73.617Z" fill="url(#paint24_linear_1041_168)"/>
<path fill-rule="evenodd" clip-rule="evenodd" d="M29.4931 73.5863C29.0188 73.7113 28.5802 73.9453 28.2121 74.2696C27.844 74.5939 27.5567 74.9996 27.373 75.4544C27.1892 75.9092 27.1141 76.4007 27.1536 76.8896C27.193 77.3786 27.346 77.8516 27.6004 78.271C28.0747 78.146 28.5133 77.912 28.8814 77.5877C29.2495 77.2634 29.5368 76.8577 29.7205 76.4029C29.9043 75.9481 29.9794 75.4567 29.94 74.9677C29.9005 74.4788 29.7475 74.0058 29.4931 73.5863Z" fill="url(#paint25_linear_1041_168)"/>
<path fill-rule="evenodd" clip-rule="evenodd" d="M29.493 73.5862C29.9673 73.4612 30.4059 73.2272 30.774 72.9029C31.142 72.5786 31.4294 72.1729 31.6131 71.7181C31.7969 71.2633 31.872 70.7718 31.8325 70.2829C31.7931 69.7939 31.6401 69.3209 31.3857 68.9015C30.9114 69.0265 30.4727 69.2605 30.1047 69.5848C29.7366 69.9091 29.4493 70.3148 29.2655 70.7696C29.0818 71.2244 29.0067 71.7158 29.0461 72.2048C29.0856 72.6938 29.2386 73.1668 29.493 73.5862Z" fill="url(#paint26_linear_1041_168)"/>
<path fill-rule="evenodd" clip-rule="evenodd" d="M29.4931 73.5863C29.2388 74.0058 29.0858 74.4788 29.0463 74.9677C29.0068 75.4567 29.0819 75.9481 29.2657 76.4029C29.4495 76.8577 29.7368 77.2634 30.1049 77.5877C30.4729 77.912 30.9115 78.146 31.3859 78.271C31.6402 77.8516 31.7932 77.3786 31.8327 76.8896C31.8722 76.4007 31.7971 75.9092 31.6133 75.4544C31.4295 74.9996 31.1422 74.5939 30.7741 74.2696C30.4061 73.9453 29.9675 73.7113 29.4931 73.5863Z" fill="url(#paint27_linear_1041_168)"/>
<path fill-rule="evenodd" clip-rule="evenodd" d="M29.4933 73.5862C29.7476 73.1668 29.9006 72.6938 29.9401 72.2048C29.9796 71.7159 29.9045 71.2244 29.7207 70.7696C29.537 70.3148 29.2496 69.9091 28.8816 69.5848C28.5135 69.2605 28.0749 69.0265 27.6005 68.9015C27.3462 69.3209 27.1932 69.7939 27.1537 70.2829C27.1142 70.7718 27.1894 71.2633 27.3731 71.7181C27.5569 72.1729 27.8442 72.5786 28.2123 72.9029C28.5803 73.2272 29.019 73.4612 29.4933 73.5862Z" fill="url(#paint28_linear_1041_168)"/>
<path fill-rule="evenodd" clip-rule="evenodd" d="M29.493 73.586C29.5931 74.0663 29.8038 74.5165 30.1084 74.9011C30.413 75.2856 30.803 75.5938 31.2476 75.8011C31.6922 76.0084 32.179 76.1091 32.6694 76.0953C33.1597 76.0815 33.6401 75.9534 34.0723 75.7214C33.9722 75.2411 33.7615 74.7909 33.4569 74.4063C33.1524 74.0218 32.7623 73.7137 32.3177 73.5063C31.8731 73.299 31.3863 73.1983 30.8959 73.2121C30.4056 73.226 29.9252 73.354 29.493 73.586Z" fill="url(#paint29_linear_1041_168)"/>
<path fill-rule="evenodd" clip-rule="evenodd" d="M29.4932 73.5861C29.3931 73.1059 29.1824 72.6556 28.8778 72.2711C28.5732 71.8866 28.1832 71.5784 27.7386 71.3711C27.294 71.1638 26.8072 71.063 26.3168 71.0769C25.8265 71.0907 25.3461 71.2187 24.9139 71.4508C25.014 71.931 25.2247 72.3813 25.5293 72.7658C25.8339 73.1503 26.2239 73.4585 26.6685 73.6658C27.1131 73.8731 27.5999 73.9739 28.0903 73.96C28.5806 73.9462 29.061 73.8182 29.4932 73.5861Z" fill="url(#paint30_linear_1041_168)"/>
<path fill-rule="evenodd" clip-rule="evenodd" d="M29.4936 73.5862C29.9085 73.8478 30.3788 74.009 30.867 74.057C31.3552 74.1051 31.8478 74.0385 32.3058 73.8627C32.7637 73.6869 33.1744 73.4067 33.5051 73.0444C33.8357 72.682 34.0773 72.2476 34.2106 71.7755C33.7957 71.5138 33.3254 71.3526 32.8372 71.3046C32.349 71.2566 31.8564 71.3231 31.3984 71.4989C30.9405 71.6747 30.5298 71.9549 30.1991 72.3173C29.8685 72.6796 29.6269 73.1141 29.4936 73.5862Z" fill="url(#paint31_linear_1041_168)"/>
<path fill-rule="evenodd" clip-rule="evenodd" d="M29.4938 73.5863C29.0789 73.3246 28.6086 73.1634 28.1204 73.1154C27.6322 73.0674 27.1396 73.1339 26.6816 73.3097C26.2237 73.4855 25.813 73.7657 25.4823 74.1281C25.1517 74.4904 24.9101 74.9249 24.7768 75.397C25.1917 75.6586 25.662 75.8198 26.1502 75.8678C26.6384 75.9158 27.131 75.8493 27.589 75.6735C28.0469 75.4977 28.4576 75.2175 28.7883 74.8552C29.1189 74.4928 29.3605 74.0584 29.4938 73.5863Z" fill="url(#paint32_linear_1041_168)"/>
<path fill-rule="evenodd" clip-rule="evenodd" d="M29.5695 73.5766C29.1326 73.5133 28.6869 73.5528 28.2679 73.692C27.8489 73.8312 27.4681 74.0663 27.1559 74.3785C26.8437 74.6907 26.6087 75.0714 26.4695 75.4904C26.3303 75.9094 26.2908 76.3551 26.3541 76.7921C26.791 76.8554 27.2367 76.8159 27.6557 76.6767C28.0747 76.5375 28.4555 76.3024 28.7677 75.9902C29.0799 75.678 29.3149 75.2973 29.4541 74.8783C29.5933 74.4593 29.6328 74.0136 29.5695 73.5766Z" fill="url(#paint33_linear_1041_168)"/>
<path fill-rule="evenodd" clip-rule="evenodd" d="M29.48 73.6659C29.917 73.7292 30.3627 73.6897 30.7817 73.5504C31.2007 73.4112 31.5814 73.1762 31.8936 72.864C32.2058 72.5518 32.4409 72.171 32.5801 71.752C32.7193 71.333 32.7588 70.8873 32.6955 70.4504C32.2586 70.3871 31.8129 70.4266 31.3939 70.5658C30.9749 70.705 30.5941 70.9401 30.2819 71.2523C29.9697 71.5645 29.7347 71.9452 29.5955 72.3642C29.4562 72.7832 29.4167 73.2289 29.48 73.6659Z" fill="url(#paint34_linear_1041_168)"/>
<path fill-rule="evenodd" clip-rule="evenodd" d="M29.4299 73.5259C29.3666 73.9629 29.4061 74.4086 29.5453 74.8276C29.6845 75.2466 29.9196 75.6273 30.2318 75.9395C30.544 76.2517 30.9247 76.4868 31.3437 76.626C31.7627 76.7652 32.2084 76.8047 32.6454 76.7414C32.7087 76.3044 32.6691 75.8587 32.5299 75.4397C32.3907 75.0207 32.1557 74.64 31.8435 74.3278C31.5313 74.0156 31.1505 73.7806 30.7315 73.6413C30.3125 73.5021 29.8668 73.4626 29.4299 73.5259Z" fill="url(#paint35_linear_1041_168)"/>
<path fill-rule="evenodd" clip-rule="evenodd" d="M29.5194 73.6152C29.5827 73.1782 29.5432 72.7325 29.404 72.3135C29.2648 71.8945 29.0297 71.5138 28.7175 71.2016C28.4053 70.8894 28.0246 70.6543 27.6056 70.5151C27.1866 70.3759 26.7409 70.3364 26.3039 70.3997C26.2406 70.8367 26.2801 71.2824 26.4193 71.7014C26.5585 72.1204 26.7936 72.5011 27.1058 72.8133C27.418 73.1255 27.7987 73.3606 28.2177 73.4998C28.6367 73.639 29.0824 73.6785 29.5194 73.6152Z" fill="url(#paint36_linear_1041_168)"/>
<path fill-rule="evenodd" clip-rule="evenodd" d="M29.4746 73.6843C29.8283 73.4201 30.1156 73.077 30.3134 72.6823C30.5112 72.2876 30.6143 71.8522 30.6143 71.4106C30.6143 70.9691 30.5112 70.5337 30.3134 70.139C30.1156 69.7443 29.8283 69.4012 29.4746 69.137C29.1209 69.4012 28.8336 69.7443 28.6358 70.139C28.438 70.5337 28.3349 70.9691 28.3349 71.4106C28.3349 71.8522 28.438 72.2876 28.6358 72.6823C28.8336 73.077 29.1209 73.4201 29.4746 73.6843Z" fill="url(#paint37_linear_1041_168)"/>
<path fill-rule="evenodd" clip-rule="evenodd" d="M29.4746 73.6846C29.1209 73.9488 28.8337 74.2919 28.6358 74.6866C28.438 75.0813 28.335 75.5167 28.335 75.9582C28.335 76.3998 28.438 76.8352 28.6358 77.2299C28.8337 77.6246 29.1209 77.9677 29.4746 78.2319C29.8284 77.9677 30.1156 77.6246 30.3134 77.2299C30.5113 76.8352 30.6143 76.3998 30.6143 75.9582C30.6143 75.5167 30.5113 75.0813 30.3134 74.6866C30.1156 74.2919 29.8284 73.9488 29.4746 73.6846Z" fill="url(#paint38_linear_1041_168)"/>
<path fill-rule="evenodd" clip-rule="evenodd" d="M29.5732 73.657C29.309 73.3033 28.9659 73.016 28.5712 72.8182C28.1765 72.6204 27.7411 72.5173 27.2996 72.5173C26.858 72.5173 26.4226 72.6204 26.0279 72.8182C25.6332 73.016 25.2901 73.3033 25.0259 73.657C25.2901 74.0107 25.6332 74.2979 26.0279 74.4958C26.4226 74.6936 26.858 74.7967 27.2996 74.7967C27.7411 74.7967 28.1765 74.6936 28.5712 74.4958C28.9659 74.2979 29.309 74.0107 29.5732 73.657Z" fill="url(#paint39_linear_1041_168)"/>
<path fill-rule="evenodd" clip-rule="evenodd" d="M29.4468 73.657C29.711 74.0107 30.0541 74.2979 30.4488 74.4958C30.8435 74.6936 31.2789 74.7967 31.7205 74.7967C32.162 74.7967 32.5974 74.6936 32.9921 74.4958C33.3868 74.2979 33.7299 74.0107 33.9941 73.657C33.7299 73.3033 33.3868 73.016 32.9921 72.8182C32.5974 72.6204 32.162 72.5173 31.7205 72.5173C31.2789 72.5173 30.8435 72.6204 30.4488 72.8182C30.0541 73.016 29.711 73.3033 29.4468 73.657Z" fill="url(#paint40_linear_1041_168)"/>
</g>
<defs>
<linearGradient id="paint0_linear_1041_168" x1="-653.19" y1="44.2341" x2="-653.19" y2="1491.9" gradientUnits="userSpaceOnUse">
<stop stop-color="#FF7900"/>
<stop offset="1" stop-color="#FFA200"/>
</linearGradient>
<linearGradient id="paint1_linear_1041_168" x1="6.99805" y1="278.352" x2="298.998" y2="278.352" gradientUnits="userSpaceOnUse">
<stop stop-color="#F7B005"/>
<stop offset="1" stop-color="#EC7802"/>
</linearGradient>
<linearGradient id="paint2_linear_1041_168" x1="6.99805" y1="272.672" x2="298.998" y2="272.672" gradientUnits="userSpaceOnUse">
<stop stop-color="#F7B005"/>
<stop offset="1" stop-color="#EC7802"/>
</linearGradient>
<linearGradient id="paint3_linear_1041_168" x1="236.405" y1="51.918" x2="236.405" y2="-240.082" gradientUnits="userSpaceOnUse">
<stop stop-color="#F7B005"/>
<stop offset="1" stop-color="#EC7802"/>
</linearGradient>
<linearGradient id="paint4_linear_1041_168" x1="230.725" y1="51.918" x2="230.725" y2="-240.082" gradientUnits="userSpaceOnUse">
<stop stop-color="#F7B005"/>
<stop offset="1" stop-color="#EC7802"/>
</linearGradient>
<linearGradient id="paint5_linear_1041_168" x1="-87.3709" y1="284.19" x2="147.387" y2="379.038" gradientUnits="userSpaceOnUse">
<stop stop-color="#FFE200"/>
<stop offset="1" stop-color="#FFC100"/>
</linearGradient>
<linearGradient id="paint6_linear_1041_168" x1="-85.4783" y1="279.505" x2="149.28" y2="374.354" gradientUnits="userSpaceOnUse">
<stop stop-color="#FFE200"/>
<stop offset="1" stop-color="#FFC100"/>
</linearGradient>
<linearGradient id="paint7_linear_1041_168" x1="101.904" y1="285.139" x2="336.662" y2="190.29" gradientUnits="userSpaceOnUse">
<stop stop-color="#FFE200"/>
<stop offset="1" stop-color="#FFC100"/>
</linearGradient>
<linearGradient id="paint8_linear_1041_168" x1="100.011" y1="280.454" x2="334.769" y2="185.605" gradientUnits="userSpaceOnUse">
<stop stop-color="#FFE200"/>
<stop offset="1" stop-color="#FFC100"/>
</linearGradient>
<linearGradient id="paint9_linear_1041_168" x1="236.867" y1="158.342" x2="343.872" y2="-71.1301" gradientUnits="userSpaceOnUse">
<stop stop-color="#FFE200"/>
<stop offset="1" stop-color="#FFC100"/>
</linearGradient>
<linearGradient id="paint10_linear_1041_168" x1="232.288" y1="156.207" x2="339.293" y2="-73.2654" gradientUnits="userSpaceOnUse">
<stop stop-color="#FFE200"/>
<stop offset="1" stop-color="#FFC100"/>
</linearGradient>
<linearGradient id="paint11_linear_1041_168" x1="244.746" y1="-38.925" x2="154.01" y2="-275.303" gradientUnits="userSpaceOnUse">
<stop stop-color="#FFE200"/>
<stop offset="1" stop-color="#FFC100"/>
</linearGradient>
<linearGradient id="paint12_linear_1041_168" x1="240.03" y1="-37.1142" x2="149.293" y2="-273.492" gradientUnits="userSpaceOnUse">
<stop stop-color="#FFE200"/>
<stop offset="1" stop-color="#FFC100"/>
</linearGradient>
<linearGradient id="paint13_linear_1041_168" x1="-153.063" y1="210.387" x2="8.10924" y2="371.559" gradientUnits="userSpaceOnUse">
<stop stop-color="#F7B005"/>
<stop offset="1" stop-color="#EC7802"/>
</linearGradient>
<linearGradient id="paint14_linear_1041_168" x1="-149.937" y1="207.26" x2="11.2352" y2="368.432" gradientUnits="userSpaceOnUse">
<stop stop-color="#F7B005"/>
<stop offset="1" stop-color="#EC7802"/>
</linearGradient>
<linearGradient id="paint15_linear_1041_168" x1="168.345" y1="211.948" x2="329.517" y2="50.7755" gradientUnits="userSpaceOnUse">
<stop stop-color="#F7B005"/>
<stop offset="1" stop-color="#EC7802"/>
</linearGradient>
<linearGradient id="paint16_linear_1041_168" x1="165.219" y1="208.821" x2="326.391" y2="47.6493" gradientUnits="userSpaceOnUse">
<stop stop-color="#F7B005"/>
<stop offset="1" stop-color="#EC7802"/>
</linearGradient>
<linearGradient id="paint17_linear_1041_168" x1="-104.404" y1="45.979" x2="-104.404" y2="500.716" gradientUnits="userSpaceOnUse">
<stop stop-color="#FFC600"/>
<stop offset="1" stop-color="#FFA700"/>
</linearGradient>
<linearGradient id="paint18_linear_1041_168" x1="121.248" y1="55.074" x2="121.248" y2="-399.663" gradientUnits="userSpaceOnUse">
<stop stop-color="#FFC600"/>
<stop offset="1" stop-color="#FFA700"/>
</linearGradient>
<linearGradient id="paint19_linear_1041_168" x1="-218.848" y1="49.3594" x2="-218.848" y2="277.291" gradientUnits="userSpaceOnUse">
<stop stop-color="#FFE200"/>
<stop offset="1" stop-color="#FFC100"/>
</linearGradient>
<linearGradient id="paint20_linear_1041_168" x1="-214.427" y1="49.3594" x2="-214.427" y2="277.291" gradientUnits="userSpaceOnUse">
<stop stop-color="#FFE200"/>
<stop offset="1" stop-color="#FFC100"/>
</linearGradient>
<linearGradient id="paint21_linear_1041_168" x1="28.0508" y1="301.51" x2="320.051" y2="301.51" gradientUnits="userSpaceOnUse">
<stop stop-color="#F7B005"/>
<stop offset="1" stop-color="#EC7802"/>
</linearGradient>
<linearGradient id="paint22_linear_1041_168" x1="28.0508" y1="295.83" x2="320.051" y2="295.83" gradientUnits="userSpaceOnUse">
<stop stop-color="#F7B005"/>
<stop offset="1" stop-color="#EC7802"/>
</linearGradient>
<linearGradient id="paint23_linear_1041_168" x1="257.457" y1="75.0759" x2="257.457" y2="-216.924" gradientUnits="userSpaceOnUse">
<stop stop-color="#F7B005"/>
<stop offset="1" stop-color="#EC7802"/>
</linearGradient>
<linearGradient id="paint24_linear_1041_168" x1="251.778" y1="75.0759" x2="251.778" y2="-216.924" gradientUnits="userSpaceOnUse">
<stop stop-color="#F7B005"/>
<stop offset="1" stop-color="#EC7802"/>
</linearGradient>
<linearGradient id="paint25_linear_1041_168" x1="-66.3181" y1="307.348" x2="168.44" y2="402.196" gradientUnits="userSpaceOnUse">
<stop stop-color="#FFE200"/>
<stop offset="1" stop-color="#FFC100"/>
</linearGradient>
<linearGradient id="paint26_linear_1041_168" x1="-64.4255" y1="302.663" x2="170.332" y2="397.512" gradientUnits="userSpaceOnUse">
<stop stop-color="#FFE200"/>
<stop offset="1" stop-color="#FFC100"/>
</linearGradient>
<linearGradient id="paint27_linear_1041_168" x1="122.957" y1="308.296" x2="357.715" y2="213.448" gradientUnits="userSpaceOnUse">
<stop stop-color="#FFE200"/>
<stop offset="1" stop-color="#FFC100"/>
</linearGradient>
<linearGradient id="paint28_linear_1041_168" x1="121.064" y1="303.612" x2="355.822" y2="208.763" gradientUnits="userSpaceOnUse">
<stop stop-color="#FFE200"/>
<stop offset="1" stop-color="#FFC100"/>
</linearGradient>
<linearGradient id="paint29_linear_1041_168" x1="257.92" y1="181.5" x2="364.925" y2="-47.9722" gradientUnits="userSpaceOnUse">
<stop stop-color="#FFE200"/>
<stop offset="1" stop-color="#FFC100"/>
</linearGradient>
<linearGradient id="paint30_linear_1041_168" x1="253.341" y1="179.365" x2="360.346" y2="-50.1074" gradientUnits="userSpaceOnUse">
<stop stop-color="#FFE200"/>
<stop offset="1" stop-color="#FFC100"/>
</linearGradient>
<linearGradient id="paint31_linear_1041_168" x1="265.799" y1="-15.767" x2="175.062" y2="-252.145" gradientUnits="userSpaceOnUse">
<stop stop-color="#FFE200"/>
<stop offset="1" stop-color="#FFC100"/>
</linearGradient>
<linearGradient id="paint32_linear_1041_168" x1="261.082" y1="-13.9562" x2="170.346" y2="-250.334" gradientUnits="userSpaceOnUse">
<stop stop-color="#FFE200"/>
<stop offset="1" stop-color="#FFC100"/>
</linearGradient>
<linearGradient id="paint33_linear_1041_168" x1="-132.01" y1="233.544" x2="29.162" y2="394.717" gradientUnits="userSpaceOnUse">
<stop stop-color="#F7B005"/>
<stop offset="1" stop-color="#EC7802"/>
</linearGradient>
<linearGradient id="paint34_linear_1041_168" x1="-128.884" y1="230.418" x2="32.2879" y2="391.59" gradientUnits="userSpaceOnUse">
<stop stop-color="#F7B005"/>
<stop offset="1" stop-color="#EC7802"/>
</linearGradient>
<linearGradient id="paint35_linear_1041_168" x1="189.398" y1="235.106" x2="350.57" y2="73.9335" gradientUnits="userSpaceOnUse">
<stop stop-color="#F7B005"/>
<stop offset="1" stop-color="#EC7802"/>
</linearGradient>
<linearGradient id="paint36_linear_1041_168" x1="186.272" y1="231.979" x2="347.444" y2="70.8073" gradientUnits="userSpaceOnUse">
<stop stop-color="#F7B005"/>
<stop offset="1" stop-color="#EC7802"/>
</linearGradient>
<linearGradient id="paint37_linear_1041_168" x1="-83.3516" y1="69.137" x2="-83.3516" y2="523.874" gradientUnits="userSpaceOnUse">
<stop stop-color="#FFC600"/>
<stop offset="1" stop-color="#FFA700"/>
</linearGradient>
<linearGradient id="paint38_linear_1041_168" x1="142.301" y1="78.2319" x2="142.301" y2="-376.505" gradientUnits="userSpaceOnUse">
<stop stop-color="#FFC600"/>
<stop offset="1" stop-color="#FFA700"/>
</linearGradient>
<linearGradient id="paint39_linear_1041_168" x1="-197.795" y1="72.5173" x2="-197.795" y2="300.449" gradientUnits="userSpaceOnUse">
<stop stop-color="#FFE200"/>
<stop offset="1" stop-color="#FFC100"/>
</linearGradient>
<linearGradient id="paint40_linear_1041_168" x1="-193.374" y1="72.5173" x2="-193.374" y2="300.449" gradientUnits="userSpaceOnUse">
<stop stop-color="#FFE200"/>
<stop offset="1" stop-color="#FFC100"/>
</linearGradient>
<clipPath id="clip0_1041_168">
<rect width="103.158" height="80" fill="white"/>
</clipPath>
</defs>
</svg>
