<svg width="82" height="80" viewBox="0 0 82 80" fill="none" xmlns="http://www.w3.org/2000/svg">
<path d="M5.84201 32.969C2.61545 32.9684 0 30.3502 0 27.1207C0 23.8907 2.61607 21.2723 5.84316 21.2723C8.05962 21.2723 9.98784 22.5075 10.9782 24.3276C17.1604 16.9953 26.839 12.2749 37.7181 12.2749C40.9809 12.2749 44.1356 12.6994 47.1205 13.4917L53.0855 8.88478C54.7882 7.56974 57.2345 7.88399 58.5496 9.58668C59.1621 10.3797 59.4454 11.3783 59.3407 12.3748L58.6506 18.9427C63.8756 22.7328 67.8529 27.9098 69.9236 33.8687H74.0133C78.3161 33.8687 81.8042 37.3568 81.8042 41.6596V44.9725C81.8042 49.2753 78.3161 52.7634 74.0133 52.7634H69.9236C68.6954 56.2978 66.7965 59.5572 64.3643 62.4152L65.1195 63.1705C68.162 66.213 68.162 71.1459 65.1195 74.1884L61.5898 77.7182C58.5473 80.7607 53.6144 80.7607 50.5718 77.7182L48.2293 75.3756C47.5908 74.7371 47.0863 74.0154 46.7158 73.2453C43.851 73.9701 40.8338 74.3573 37.7181 74.3573C34.1425 74.3573 30.6965 73.8474 27.4618 72.9024C27.1674 73.3579 26.8207 73.7894 26.4217 74.1884L22.892 77.7182C19.8495 80.7607 14.9166 80.7607 11.874 77.7182L9.53147 75.3756C6.48894 72.3331 6.48894 67.4002 9.53147 64.3576L11.2577 62.6314C6.66375 57.3304 3.91877 50.6176 3.91877 43.3161C3.91877 39.688 4.59649 36.2053 5.84201 32.969ZM51.6787 35.6682C53.7077 35.6682 55.3526 34.1576 55.3526 32.2942C55.3526 30.4308 53.7077 28.9201 51.6787 28.9201C49.6497 28.9201 48.0049 30.4308 48.0049 32.2942C48.0049 34.1576 49.6497 35.6682 51.6787 35.6682ZM37.7181 18.1232C30.8894 18.1232 24.4467 20.4252 19.4557 24.5175C18.8502 25.0139 18.7976 25.867 19.3382 26.4231C19.8787 26.9791 20.8076 27.0274 21.4131 26.531C25.8705 22.8762 31.6185 20.8224 37.7181 20.8224C38.5297 20.8224 39.1877 20.2182 39.1877 19.4728C39.1877 18.7274 38.5297 18.1232 37.7181 18.1232Z" fill="black"/>
<path d="M5.84201 32.969C2.61545 32.9684 0 30.3502 0 27.1207C0 23.8907 2.61607 21.2723 5.84316 21.2723C8.05962 21.2723 9.98784 22.5075 10.9782 24.3276C17.1604 16.9953 26.839 12.2749 37.7181 12.2749C40.9809 12.2749 44.1356 12.6994 47.1205 13.4917L53.0855 8.88478C54.7882 7.56974 57.2345 7.88399 58.5496 9.58668C59.1621 10.3797 59.4454 11.3783 59.3407 12.3748L58.6506 18.9427C63.8756 22.7328 67.8529 27.9098 69.9236 33.8687H74.0133C78.3161 33.8687 81.8042 37.3568 81.8042 41.6596V44.9725C81.8042 49.2753 78.3161 52.7634 74.0133 52.7634H69.9236C68.6954 56.2978 66.7965 59.5572 64.3643 62.4152L65.1195 63.1705C68.162 66.213 68.162 71.1459 65.1195 74.1884L61.5898 77.7182C58.5473 80.7607 53.6144 80.7607 50.5718 77.7182L48.2293 75.3756C47.5908 74.7371 47.0863 74.0154 46.7158 73.2453C43.851 73.9701 40.8338 74.3573 37.7181 74.3573C34.1425 74.3573 30.6965 73.8474 27.4618 72.9024C27.1674 73.3579 26.8207 73.7894 26.4217 74.1884L22.892 77.7182C19.8495 80.7607 14.9166 80.7607 11.874 77.7182L9.53147 75.3756C6.48894 72.3331 6.48894 67.4002 9.53147 64.3576L11.2577 62.6314C6.66375 57.3304 3.91877 50.6176 3.91877 43.3161C3.91877 39.688 4.59649 36.2053 5.84201 32.969ZM51.6787 35.6682C53.7077 35.6682 55.3526 34.1576 55.3526 32.2942C55.3526 30.4308 53.7077 28.9201 51.6787 28.9201C49.6497 28.9201 48.0049 30.4308 48.0049 32.2942C48.0049 34.1576 49.6497 35.6682 51.6787 35.6682ZM37.7181 18.1232C30.8894 18.1232 24.4467 20.4252 19.4557 24.5175C18.8502 25.0139 18.7976 25.867 19.3382 26.4231C19.8787 26.9791 20.8076 27.0274 21.4131 26.531C25.8705 22.8762 31.6185 20.8224 37.7181 20.8224C38.5297 20.8224 39.1877 20.2182 39.1877 19.4728C39.1877 18.7274 38.5297 18.1232 37.7181 18.1232Z" fill="url(#paint0_linear_1041_147)"/>
<path d="M23.3728 23.3726C29.827 23.3726 35.0592 18.1405 35.0592 11.6863C35.0592 5.23214 29.827 0 23.3728 0C16.9187 0 11.6865 5.23214 11.6865 11.6863C11.6865 18.1405 16.9187 23.3726 23.3728 23.3726Z" fill="#FEE743"/>
<path d="M23.3707 20.0337C28.2881 20.0337 32.2745 16.2965 32.2745 11.6864C32.2745 7.07623 28.2881 3.33899 23.3707 3.33899C18.4532 3.33899 14.4668 7.07623 14.4668 11.6864C14.4668 16.2965 18.4532 20.0337 23.3707 20.0337Z" fill="#DFCB40"/>
<defs>
<linearGradient id="paint0_linear_1041_147" x1="0" y1="8.07214" x2="7285.52" y2="8212.72" gradientUnits="userSpaceOnUse">
<stop stop-color="#3CBDFF"/>
<stop offset="1" stop-color="#87FFE1"/>
</linearGradient>
</defs>
</svg>
