<?xml version="1.0" encoding="utf-8"?>
<!DOCTYPE svg PUBLIC "-//W3C//DTD SVG 1.1//EN" "http://www.w3.org/Graphics/SVG/1.1/DTD/svg11.dtd">
<svg version="1.1" xmlns="http://www.w3.org/2000/svg" xmlns:xlink="http://www.w3.org/1999/xlink" x="0px" y="0px"
	 viewBox="-351.2 290.8 212.4 212.4" enable-background="new -351.2 290.8 212.4 212.4" xml:space="preserve">
<g id="stroke">
	<title>BA</title>
	<rect id="Rectangle-17" x="-319.3" y="322.7" fill="none" stroke="#494C4E" stroke-width="15" width="148.7" height="148.7"/>
</g>
<g id="ba-content">
	<path id="BA" fill="#494C4E" d="M-274.6,413.4v-1.7c1.6,0,2.6-0.3,3.2-0.8c0.6-0.6,0.9-1.4,0.9-2.4v-22.3c0-1.1-0.3-1.9-0.9-2.4 c-0.6-0.6-1.7-0.8-3.2-0.8v-1.7h12.7c2.2,0,4.1,0.3,5.5,0.8c1.4,0.5,2.5,1.2,3.3,2c0.8,0.8,1.3,1.7,1.6,2.6s0.4,1.7,0.4,2.5
		c0,0.7-0.1,1.4-0.4,2.2c-0.2,0.8-0.6,1.5-1.2,2.1c-0.5,0.6-1.2,1.2-2.1,1.7s-1.9,0.9-3.1,1.1v0.3c2.5,0.4,4.5,1.3,6,2.7
		c1.5,1.4,2.3,3.3,2.3,5.7c0,1.3-0.2,2.4-0.6,3.5c-0.4,1-1.1,2-1.9,2.7c-0.9,0.8-2,1.4-3.3,1.8c-1.3,0.4-2.9,0.6-4.8,0.6H-274.6z
		 M-266.1,397.3v11.1c0,1.1,0.3,1.9,0.8,2.4c0.6,0.6,1.6,0.8,3.1,0.8c1.8,0,3.3-0.2,4.4-0.7c1.1-0.4,1.9-1,2.5-1.7
		c0.6-0.7,0.9-1.5,1.1-2.4c0.2-0.9,0.3-1.7,0.3-2.6c0-0.9-0.2-1.7-0.5-2.6c-0.3-0.8-0.9-1.6-1.6-2.3s-1.7-1.2-2.9-1.6
		s-2.7-0.6-4.4-0.6H-266.1z M-266.1,395.5c0.2,0,0.5,0,0.7,0h0.7c1.7,0,3.1-0.2,4.3-0.5c1.2-0.4,2.1-0.8,2.8-1.4
		c0.7-0.6,1.2-1.3,1.5-2.1c0.3-0.8,0.5-1.6,0.5-2.5c0-0.6-0.1-1.2-0.2-1.9c-0.1-0.7-0.4-1.4-0.9-2c-0.5-0.6-1.1-1.1-2-1.6
		c-0.9-0.4-2.1-0.6-3.6-0.6c-1.5,0-2.5,0.3-3,0.9c-0.5,0.6-0.8,1.4-0.8,2.4V395.5z M-228.5,413.4v-1.2l2.9-0.8
		c0.5-0.2,0.8-0.3,1-0.5c0.2-0.2,0.3-0.4,0.3-0.7c0-0.2,0-0.4-0.1-0.7c-0.1-0.3-0.2-0.6-0.3-0.9l-2.7-8.1h-11.1l-2.8,8.2
		c-0.1,0.2-0.1,0.5-0.2,0.7c-0.1,0.2-0.1,0.5-0.1,0.7c0,0.3,0.1,0.5,0.2,0.8c0.2,0.2,0.4,0.4,0.8,0.5l3.1,0.8v1.2h-10.6v-1.2
		l1.7-0.6c0.8-0.3,1.3-0.7,1.6-1.2c0.3-0.5,0.5-1,0.8-1.5l10.3-27.8l4-0.5l0.3,0.2l9.7,28c0.2,0.5,0.4,1,0.8,1.5
		c0.4,0.5,0.9,0.9,1.8,1.2l1.8,0.6v1.3H-228.5z M-233,384.2l-4.9,14.4h9.8L-233,384.2z"/>
</g>
</svg>
