<svg width="50" height="50" viewBox="0 0 50 50" fill="none" xmlns="http://www.w3.org/2000/svg">
<path d="M32.1748 35.7051C32.1751 37.3697 32.8365 38.966 34.0136 40.1429C35.1908 41.3199 36.7872 41.9811 38.4518 41.9811C40.1167 41.9813 41.7134 41.3203 42.891 40.1434C44.0685 38.9664 44.7303 37.3699 44.7308 35.7051" stroke="#FFC500" stroke-width="4.911" stroke-linecap="round" stroke-linejoin="round"/>
<path fill-rule="evenodd" clip-rule="evenodd" d="M3.63798 34.6743C4.47507 33.6073 6.0186 33.421 7.08555 34.2581L12.3262 38.3698L17.478 34.2925C18.5414 33.4509 20.0857 33.6307 20.9273 34.6941C21.7689 35.7575 21.5891 37.3018 20.5257 38.1434L13.8567 43.4214C12.9668 44.1258 11.7101 44.1284 10.8172 43.4279L4.05418 38.1219C2.98723 37.2848 2.80089 35.7412 3.63798 34.6743Z" fill="#BB3FA0"/>
<path fill-rule="evenodd" clip-rule="evenodd" d="M5.67818 7.62179C6.63712 6.66285 8.19185 6.66285 9.15078 7.62179L12.2861 10.7571L15.4211 7.62188C16.38 6.66289 17.9347 6.66281 18.8937 7.6217C19.8527 8.58058 19.8528 10.1353 18.8939 11.0943L15.7587 14.2297L18.8948 17.3658C19.8537 18.3247 19.8537 19.8795 18.8948 20.8384C17.9359 21.7973 16.3811 21.7973 15.4222 20.8384L12.2863 17.7025L9.15087 20.8383C8.19199 21.7973 6.63725 21.7974 5.67827 20.8385C4.71929 19.8796 4.71921 18.3249 5.67809 17.3659L8.81372 14.2299L5.67818 11.0944C4.71925 10.1355 4.71925 8.58072 5.67818 7.62179Z" fill="#00B9DF"/>
<path fill-rule="evenodd" clip-rule="evenodd" d="M33.768 6.11353C35.1241 6.11353 36.2235 7.21289 36.2235 8.56903V15.5575H43.683C45.0391 15.5575 46.1385 16.6569 46.1385 18.013C46.1385 19.3692 45.0391 20.4685 43.683 20.4685H33.768C32.4119 20.4685 31.3125 19.3692 31.3125 18.013V8.56903C31.3125 7.21289 32.4119 6.11353 33.768 6.11353Z" fill="#F14965"/>
</svg>
